<mxfile host="app.diagrams.net" modified="2021-08-10T17:11:21.587Z" agent="5.0 (Windows NT 10.0; Win64; x64) AppleWebKit/537.36 (KHTML, like Gecko) Chrome/92.0.4515.131 Safari/537.36" etag="paLYis3K9z4iPh-ao0e8" version="14.9.5" type="github">
  <diagram id="C5RBs43oDa-KdzZeNtuy" name="Page-1">
    <mxGraphModel dx="703" dy="413" grid="1" gridSize="10" guides="1" tooltips="1" connect="1" arrows="1" fold="1" page="1" pageScale="1" pageWidth="827" pageHeight="1169" math="0" shadow="0">
      <root>
        <mxCell id="WIyWlLk6GJQsqaUBKTNV-0" />
        <mxCell id="WIyWlLk6GJQsqaUBKTNV-1" parent="WIyWlLk6GJQsqaUBKTNV-0" />
        <mxCell id="EkIygRgZrOwB8es0yi5O-0" value="Kleyton: Aluno" style="swimlane;fontStyle=0;align=center;verticalAlign=top;childLayout=stackLayout;horizontal=1;startSize=26;horizontalStack=0;resizeParent=1;resizeLast=0;collapsible=1;marginBottom=0;rounded=0;shadow=0;strokeWidth=1;" parent="WIyWlLk6GJQsqaUBKTNV-1" vertex="1">
          <mxGeometry x="213" y="127" width="260" height="153" as="geometry">
            <mxRectangle x="550" y="140" width="160" height="26" as="alternateBounds" />
          </mxGeometry>
        </mxCell>
        <mxCell id="x1TwfjZlgNRyHizb8ja5-27" value="id = 1" style="text;align=left;verticalAlign=top;spacingLeft=4;spacingRight=4;overflow=hidden;rotatable=0;points=[[0,0.5],[1,0.5]];portConstraint=eastwest;" vertex="1" parent="EkIygRgZrOwB8es0yi5O-0">
          <mxGeometry y="26" width="260" height="26" as="geometry" />
        </mxCell>
        <mxCell id="EkIygRgZrOwB8es0yi5O-1" value="RA = 2948763Â " style="text;align=left;verticalAlign=top;spacingLeft=4;spacingRight=4;overflow=hidden;rotatable=0;points=[[0,0.5],[1,0.5]];portConstraint=eastwest;" parent="EkIygRgZrOwB8es0yi5O-0" vertex="1">
          <mxGeometry y="52" width="260" height="26" as="geometry" />
        </mxCell>
        <mxCell id="EkIygRgZrOwB8es0yi5O-2" value="nome = Kleyton" style="text;align=left;verticalAlign=top;spacingLeft=4;spacingRight=4;overflow=hidden;rotatable=0;points=[[0,0.5],[1,0.5]];portConstraint=eastwest;rounded=0;shadow=0;html=0;" parent="EkIygRgZrOwB8es0yi5O-0" vertex="1">
          <mxGeometry y="78" width="260" height="26" as="geometry" />
        </mxCell>
        <mxCell id="EkIygRgZrOwB8es0yi5O-3" value="senha = 0b0md3gu3rr4!!!" style="text;align=left;verticalAlign=top;spacingLeft=4;spacingRight=4;overflow=hidden;rotatable=0;points=[[0,0.5],[1,0.5]];portConstraint=eastwest;rounded=0;shadow=0;html=0;" parent="EkIygRgZrOwB8es0yi5O-0" vertex="1">
          <mxGeometry y="104" width="260" height="26" as="geometry" />
        </mxCell>
        <mxCell id="EkIygRgZrOwB8es0yi5O-6" value="" style="line;html=1;strokeWidth=1;align=left;verticalAlign=middle;spacingTop=-1;spacingLeft=3;spacingRight=3;rotatable=0;labelPosition=right;points=[];portConstraint=eastwest;" parent="EkIygRgZrOwB8es0yi5O-0" vertex="1">
          <mxGeometry y="130" width="260" height="8" as="geometry" />
        </mxCell>
        <mxCell id="EkIygRgZrOwB8es0yi5O-15" value="Tiuagio: Monitor" style="swimlane;fontStyle=0;align=center;verticalAlign=top;childLayout=stackLayout;horizontal=1;startSize=26;horizontalStack=0;resizeParent=1;resizeLast=0;collapsible=1;marginBottom=0;rounded=0;shadow=0;strokeWidth=1;" parent="WIyWlLk6GJQsqaUBKTNV-1" vertex="1">
          <mxGeometry x="293" y="410" width="240" height="200" as="geometry">
            <mxRectangle x="550" y="140" width="160" height="26" as="alternateBounds" />
          </mxGeometry>
        </mxCell>
        <mxCell id="EkIygRgZrOwB8es0yi5O-27" value="monitorID = 1" style="text;align=left;verticalAlign=top;spacingLeft=4;spacingRight=4;overflow=hidden;rotatable=0;points=[[0,0.5],[1,0.5]];portConstraint=eastwest;rounded=0;shadow=0;html=0;" parent="EkIygRgZrOwB8es0yi5O-15" vertex="1">
          <mxGeometry y="26" width="240" height="26" as="geometry" />
        </mxCell>
        <mxCell id="x1TwfjZlgNRyHizb8ja5-28" value="id = 2" style="text;align=left;verticalAlign=top;spacingLeft=4;spacingRight=4;overflow=hidden;rotatable=0;points=[[0,0.5],[1,0.5]];portConstraint=eastwest;" vertex="1" parent="EkIygRgZrOwB8es0yi5O-15">
          <mxGeometry y="52" width="240" height="26" as="geometry" />
        </mxCell>
        <mxCell id="EkIygRgZrOwB8es0yi5O-28" value="email = loremipsum@alunos.utfpr.edu.br" style="text;align=left;verticalAlign=top;spacingLeft=4;spacingRight=4;overflow=hidden;rotatable=0;points=[[0,0.5],[1,0.5]];portConstraint=eastwest;rounded=0;shadow=0;html=0;" parent="EkIygRgZrOwB8es0yi5O-15" vertex="1">
          <mxGeometry y="78" width="240" height="26" as="geometry" />
        </mxCell>
        <mxCell id="x1TwfjZlgNRyHizb8ja5-30" value="senha = atcicssmfi" style="text;align=left;verticalAlign=top;spacingLeft=4;spacingRight=4;overflow=hidden;rotatable=0;points=[[0,0.5],[1,0.5]];portConstraint=eastwest;rounded=0;shadow=0;html=0;" vertex="1" parent="EkIygRgZrOwB8es0yi5O-15">
          <mxGeometry y="104" width="240" height="26" as="geometry" />
        </mxCell>
        <mxCell id="x1TwfjZlgNRyHizb8ja5-31" value="nome = Tiuagio" style="text;align=left;verticalAlign=top;spacingLeft=4;spacingRight=4;overflow=hidden;rotatable=0;points=[[0,0.5],[1,0.5]];portConstraint=eastwest;rounded=0;shadow=0;html=0;" vertex="1" parent="EkIygRgZrOwB8es0yi5O-15">
          <mxGeometry y="130" width="240" height="26" as="geometry" />
        </mxCell>
        <mxCell id="x1TwfjZlgNRyHizb8ja5-29" value="RA = 2648134" style="text;align=left;verticalAlign=top;spacingLeft=4;spacingRight=4;overflow=hidden;rotatable=0;points=[[0,0.5],[1,0.5]];portConstraint=eastwest;" vertex="1" parent="EkIygRgZrOwB8es0yi5O-15">
          <mxGeometry y="156" width="240" height="26" as="geometry" />
        </mxCell>
        <mxCell id="EkIygRgZrOwB8es0yi5O-21" value="" style="line;html=1;strokeWidth=1;align=left;verticalAlign=middle;spacingTop=-1;spacingLeft=3;spacingRight=3;rotatable=0;labelPosition=right;points=[];portConstraint=eastwest;" parent="EkIygRgZrOwB8es0yi5O-15" vertex="1">
          <mxGeometry y="182" width="240" height="8" as="geometry" />
        </mxCell>
        <mxCell id="EkIygRgZrOwB8es0yi5O-65" style="edgeStyle=orthogonalEdgeStyle;rounded=0;jumpSize=6;orthogonalLoop=1;jettySize=auto;html=1;exitX=0.5;exitY=0;exitDx=0;exitDy=0;entryX=0.5;entryY=1;entryDx=0;entryDy=0;fontSize=15;startArrow=none;startFill=0;endArrow=none;endFill=0;startSize=10;endSize=6;strokeWidth=1;" parent="WIyWlLk6GJQsqaUBKTNV-1" source="EkIygRgZrOwB8es0yi5O-30" target="EkIygRgZrOwB8es0yi5O-15" edge="1">
          <mxGeometry relative="1" as="geometry" />
        </mxCell>
        <mxCell id="EkIygRgZrOwB8es0yi5O-30" value="Prog1: Disciplina" style="swimlane;fontStyle=0;align=center;verticalAlign=top;childLayout=stackLayout;horizontal=1;startSize=26;horizontalStack=0;resizeParent=1;resizeLast=0;collapsible=1;marginBottom=0;rounded=0;shadow=0;strokeWidth=1;" parent="WIyWlLk6GJQsqaUBKTNV-1" vertex="1">
          <mxGeometry x="338" y="640" width="150" height="150" as="geometry">
            <mxRectangle x="550" y="140" width="160" height="26" as="alternateBounds" />
          </mxGeometry>
        </mxCell>
        <mxCell id="EkIygRgZrOwB8es0yi5O-31" value="codigo = CSF13" style="text;align=left;verticalAlign=top;spacingLeft=4;spacingRight=4;overflow=hidden;rotatable=0;points=[[0,0.5],[1,0.5]];portConstraint=eastwest;" parent="EkIygRgZrOwB8es0yi5O-30" vertex="1">
          <mxGeometry y="26" width="150" height="26" as="geometry" />
        </mxCell>
        <mxCell id="EkIygRgZrOwB8es0yi5O-36" value="disciplinaID = 1" style="text;align=left;verticalAlign=top;spacingLeft=4;spacingRight=4;overflow=hidden;rotatable=0;points=[[0,0.5],[1,0.5]];portConstraint=eastwest;rounded=0;shadow=0;html=0;" parent="EkIygRgZrOwB8es0yi5O-30" vertex="1">
          <mxGeometry y="52" width="150" height="26" as="geometry" />
        </mxCell>
        <mxCell id="EkIygRgZrOwB8es0yi5O-32" value="nome = Prog1" style="text;align=left;verticalAlign=top;spacingLeft=4;spacingRight=4;overflow=hidden;rotatable=0;points=[[0,0.5],[1,0.5]];portConstraint=eastwest;rounded=0;shadow=0;html=0;" parent="EkIygRgZrOwB8es0yi5O-30" vertex="1">
          <mxGeometry y="78" width="150" height="26" as="geometry" />
        </mxCell>
        <mxCell id="EkIygRgZrOwB8es0yi5O-33" value="departamento = dainf" style="text;align=left;verticalAlign=top;spacingLeft=4;spacingRight=4;overflow=hidden;rotatable=0;points=[[0,0.5],[1,0.5]];portConstraint=eastwest;rounded=0;shadow=0;html=0;" parent="EkIygRgZrOwB8es0yi5O-30" vertex="1">
          <mxGeometry y="104" width="150" height="26" as="geometry" />
        </mxCell>
        <mxCell id="EkIygRgZrOwB8es0yi5O-34" value="" style="line;html=1;strokeWidth=1;align=left;verticalAlign=middle;spacingTop=-1;spacingLeft=3;spacingRight=3;rotatable=0;labelPosition=right;points=[];portConstraint=eastwest;" parent="EkIygRgZrOwB8es0yi5O-30" vertex="1">
          <mxGeometry y="130" width="150" height="8" as="geometry" />
        </mxCell>
        <mxCell id="EkIygRgZrOwB8es0yi5O-40" value="h1: Horario" style="swimlane;fontStyle=0;align=center;verticalAlign=top;childLayout=stackLayout;horizontal=1;startSize=26;horizontalStack=0;resizeParent=1;resizeLast=0;collapsible=1;marginBottom=0;rounded=0;shadow=0;strokeWidth=1;" parent="WIyWlLk6GJQsqaUBKTNV-1" vertex="1">
          <mxGeometry x="653" y="410" width="160" height="120" as="geometry">
            <mxRectangle x="340" y="380" width="170" height="26" as="alternateBounds" />
          </mxGeometry>
        </mxCell>
        <mxCell id="EkIygRgZrOwB8es0yi5O-41" value="diaSemana = 16" style="text;align=left;verticalAlign=top;spacingLeft=4;spacingRight=4;overflow=hidden;rotatable=0;points=[[0,0.5],[1,0.5]];portConstraint=eastwest;" parent="EkIygRgZrOwB8es0yi5O-40" vertex="1">
          <mxGeometry y="26" width="160" height="26" as="geometry" />
        </mxCell>
        <mxCell id="EkIygRgZrOwB8es0yi5O-43" value="inicio = 08:00" style="text;align=left;verticalAlign=top;spacingLeft=4;spacingRight=4;overflow=hidden;rotatable=0;points=[[0,0.5],[1,0.5]];portConstraint=eastwest;" parent="EkIygRgZrOwB8es0yi5O-40" vertex="1">
          <mxGeometry y="52" width="160" height="26" as="geometry" />
        </mxCell>
        <mxCell id="EkIygRgZrOwB8es0yi5O-44" value="fim = 08:30" style="text;align=left;verticalAlign=top;spacingLeft=4;spacingRight=4;overflow=hidden;rotatable=0;points=[[0,0.5],[1,0.5]];portConstraint=eastwest;" parent="EkIygRgZrOwB8es0yi5O-40" vertex="1">
          <mxGeometry y="78" width="160" height="26" as="geometry" />
        </mxCell>
        <mxCell id="EkIygRgZrOwB8es0yi5O-42" value="" style="line;html=1;strokeWidth=1;align=left;verticalAlign=middle;spacingTop=-1;spacingLeft=3;spacingRight=3;rotatable=0;labelPosition=right;points=[];portConstraint=eastwest;" parent="EkIygRgZrOwB8es0yi5O-40" vertex="1">
          <mxGeometry y="104" width="160" height="8" as="geometry" />
        </mxCell>
        <mxCell id="EkIygRgZrOwB8es0yi5O-60" style="edgeStyle=orthogonalEdgeStyle;rounded=0;jumpSize=6;orthogonalLoop=1;jettySize=auto;html=1;startArrow=none;startFill=0;endArrow=none;endFill=0;endSize=6;strokeWidth=1;startSize=10;" parent="WIyWlLk6GJQsqaUBKTNV-1" target="EkIygRgZrOwB8es0yi5O-44" edge="1">
          <mxGeometry relative="1" as="geometry">
            <mxPoint x="533" y="500" as="sourcePoint" />
            <Array as="points">
              <mxPoint x="533" y="501" />
            </Array>
          </mxGeometry>
        </mxCell>
        <mxCell id="EkIygRgZrOwB8es0yi5O-71" style="edgeStyle=orthogonalEdgeStyle;rounded=0;jumpSize=6;orthogonalLoop=1;jettySize=auto;html=1;exitX=0;exitY=1;exitDx=0;exitDy=0;entryX=1;entryY=0.5;entryDx=0;entryDy=0;fontSize=15;startArrow=none;startFill=0;endArrow=none;endFill=0;startSize=10;endSize=6;strokeWidth=1;" parent="WIyWlLk6GJQsqaUBKTNV-1" target="EkIygRgZrOwB8es0yi5O-2" edge="1">
          <mxGeometry relative="1" as="geometry">
            <mxPoint x="513" y="410" as="sourcePoint" />
            <mxPoint x="563" y="170" as="targetPoint" />
            <Array as="points">
              <mxPoint x="513" y="205" />
            </Array>
          </mxGeometry>
        </mxCell>
        <mxCell id="EkIygRgZrOwB8es0yi5O-74" value="Agenda" style="text;html=1;strokeColor=none;fillColor=none;align=center;verticalAlign=middle;whiteSpace=wrap;rounded=0;fontSize=15;" parent="WIyWlLk6GJQsqaUBKTNV-1" vertex="1">
          <mxGeometry x="493" y="270" width="40" height="20" as="geometry" />
        </mxCell>
        <mxCell id="BaJsWfcR0pTe_Ca1Ub9k-10" value="a1: Agendamento" style="swimlane;fontStyle=0;align=center;verticalAlign=top;childLayout=stackLayout;horizontal=1;startSize=26;horizontalStack=0;resizeParent=1;resizeLast=0;collapsible=1;marginBottom=0;rounded=0;shadow=0;strokeWidth=1;" parent="WIyWlLk6GJQsqaUBKTNV-1" vertex="1">
          <mxGeometry x="603" y="127" width="180" height="153" as="geometry">
            <mxRectangle x="340" y="380" width="170" height="26" as="alternateBounds" />
          </mxGeometry>
        </mxCell>
        <mxCell id="BaJsWfcR0pTe_Ca1Ub9k-11" value="pMonitor = pTiuagio" style="text;align=left;verticalAlign=top;spacingLeft=4;spacingRight=4;overflow=hidden;rotatable=0;points=[[0,0.5],[1,0.5]];portConstraint=eastwest;" parent="BaJsWfcR0pTe_Ca1Ub9k-10" vertex="1">
          <mxGeometry y="26" width="180" height="26" as="geometry" />
        </mxCell>
        <mxCell id="BaJsWfcR0pTe_Ca1Ub9k-12" value="pAluno = pKleyton" style="text;align=left;verticalAlign=top;spacingLeft=4;spacingRight=4;overflow=hidden;rotatable=0;points=[[0,0.5],[1,0.5]];portConstraint=eastwest;" parent="BaJsWfcR0pTe_Ca1Ub9k-10" vertex="1">
          <mxGeometry y="52" width="180" height="26" as="geometry" />
        </mxCell>
        <mxCell id="BaJsWfcR0pTe_Ca1Ub9k-26" style="edgeStyle=orthogonalEdgeStyle;rounded=0;jumpSize=6;orthogonalLoop=1;jettySize=auto;html=1;exitX=0;exitY=1;exitDx=0;exitDy=0;fontSize=15;startArrow=none;startFill=0;endArrow=none;endFill=0;startSize=10;endSize=6;strokeWidth=1;" parent="BaJsWfcR0pTe_Ca1Ub9k-10" edge="1">
          <mxGeometry relative="1" as="geometry">
            <mxPoint x="140" y="283" as="sourcePoint" />
            <mxPoint x="98" y="153" as="targetPoint" />
            <Array as="points">
              <mxPoint x="98" y="283" />
            </Array>
          </mxGeometry>
        </mxCell>
        <mxCell id="BaJsWfcR0pTe_Ca1Ub9k-13" value="pHorario = pH1" style="text;align=left;verticalAlign=top;spacingLeft=4;spacingRight=4;overflow=hidden;rotatable=0;points=[[0,0.5],[1,0.5]];portConstraint=eastwest;" parent="BaJsWfcR0pTe_Ca1Ub9k-10" vertex="1">
          <mxGeometry y="78" width="180" height="26" as="geometry" />
        </mxCell>
        <mxCell id="BaJsWfcR0pTe_Ca1Ub9k-16" value="pendente = 1" style="text;align=left;verticalAlign=top;spacingLeft=4;spacingRight=4;overflow=hidden;rotatable=0;points=[[0,0.5],[1,0.5]];portConstraint=eastwest;" parent="BaJsWfcR0pTe_Ca1Ub9k-10" vertex="1">
          <mxGeometry y="104" width="180" height="26" as="geometry" />
        </mxCell>
        <mxCell id="BaJsWfcR0pTe_Ca1Ub9k-14" value="" style="line;html=1;strokeWidth=1;align=left;verticalAlign=middle;spacingTop=-1;spacingLeft=3;spacingRight=3;rotatable=0;labelPosition=right;points=[];portConstraint=eastwest;" parent="BaJsWfcR0pTe_Ca1Ub9k-10" vertex="1">
          <mxGeometry y="130" width="180" height="8" as="geometry" />
        </mxCell>
        <mxCell id="BaJsWfcR0pTe_Ca1Ub9k-19" style="edgeStyle=orthogonalEdgeStyle;rounded=0;jumpSize=6;orthogonalLoop=1;jettySize=auto;html=1;exitX=0.003;exitY=0.313;exitDx=0;exitDy=0;fontSize=15;startArrow=none;startFill=0;endArrow=none;endFill=0;startSize=10;endSize=6;strokeWidth=1;exitPerimeter=0;" parent="WIyWlLk6GJQsqaUBKTNV-1" source="BaJsWfcR0pTe_Ca1Ub9k-11" target="EkIygRgZrOwB8es0yi5O-0" edge="1">
          <mxGeometry relative="1" as="geometry">
            <mxPoint x="523" y="420" as="sourcePoint" />
            <mxPoint x="483" y="215" as="targetPoint" />
            <Array as="points">
              <mxPoint x="604" y="170" />
            </Array>
          </mxGeometry>
        </mxCell>
        <mxCell id="BaJsWfcR0pTe_Ca1Ub9k-33" style="edgeStyle=orthogonalEdgeStyle;rounded=0;jumpSize=6;orthogonalLoop=1;jettySize=auto;html=1;fontSize=15;startArrow=none;startFill=0;endArrow=none;endFill=0;startSize=10;endSize=6;strokeWidth=1;exitX=1;exitY=0.5;exitDx=0;exitDy=0;" parent="WIyWlLk6GJQsqaUBKTNV-1" edge="1">
          <mxGeometry relative="1" as="geometry">
            <mxPoint x="533" y="449" as="sourcePoint" />
            <mxPoint x="633" y="280" as="targetPoint" />
            <Array as="points">
              <mxPoint x="533" y="450" />
              <mxPoint x="633" y="450" />
              <mxPoint x="633" y="303" />
            </Array>
          </mxGeometry>
        </mxCell>
      </root>
    </mxGraphModel>
  </diagram>
</mxfile>
